<mxfile host="app.diagrams.net" modified="2023-06-23T07:13:00.370Z" agent="Mozilla/5.0 (Windows NT 10.0; Win64; x64; rv:109.0) Gecko/20100101 Firefox/110.0" version="21.4.0" etag="4SI2ekhIcptXWYkCPheA" type="github">
  <diagram name="Page-1" id="ClYujNeUdSKMkW_tEUQQ">
    <mxGraphModel>
      <root>
        <mxCell id="0" />
        <mxCell id="1" parent="0" />
      </root>
    </mxGraphModel>
  </diagram>
</mxfile>
